<svg width="21" height="22" fill="none" xmlns="http://www.w3.org/2000/svg"><path d="M6.7 13.319a6.3 6.3 0 00-.435 1.164.432.432 0 00.194.47c.087.054 2.15 1.3 3.864.593a5.28 5.28 0 00.401-.186c-1.461-.364-2.83-1.13-4.023-2.041zM6.739 7.748c.003.003.151.123.348.316 1.597-1.137 3.471-1.984 5.432-1.984.433 0 .87.025 1.307.077-.224-.404-.598-.825-1.198-1.225-1.178-.785-2.699-.188-3.893.565a12.972 12.972 0 00-2.032 1.608c-.18.181-.166.48.036.643zM5.513 12.313a11.45 11.45 0 01-.611-.614 1.296 1.296 0 010-1.73c.115-.128.343-.363.61-.614A7.008 7.008 0 013.926 7.64a.432.432 0 00-.665-.066c-.645.645-1 1.422-.974 2.133.028.748.028 1.507 0 2.254-.026.71.329 1.488.974 2.133a.432.432 0 00.665-.066 7.01 7.01 0 011.588-1.715z" fill="#78C0DE"/><path d="M15.35 14.08c-1.309-1.504-1.312-4.977-.004-6.489.015-.017.005-.007.203-.205a10.927 10.927 0 00-3.03-.442c-2.213 0-4.377 1.251-6.028 2.692-.414.36-.774.719-.945.91a.432.432 0 000 .576c.368.412 1.13 1.117 1.951 1.713 1.255.909 2.705 1.642 4.236 1.838.006-.007.275.045.815.05.982-.002 1.996-.148 2.983-.433l-.182-.21z" fill="#78C0DE"/><path d="M19.843 11.81c.204-.257.387-.589.412-.92.053-.726-.754-1.47-1.341-1.902-.73-.538-1.606-.98-2.447-1.297l-.477.477c-1.016 1.195-1.008 4.172.012 5.346l.419.483c1.164-.433 2.658-1.212 3.422-2.187zm-3.14-1.34a.431.431 0 11.824-.251.431.431 0 01-.825.252z" fill="#78C0DE"/></svg>